# xmcd CD database file
#
# Track frame offsets:
#	180
#	22199
#	40427
#	55419
#	70114
#	86688
#	108516
#	134086
#	149163
#	163178
#	182963
#	198488
#	212578
#	224349
#	237170
#	249552
#	262686
#	273331
#
# Disc length: 3805 seconds
#
# Revision: 0
# Processed by: cddbd v1.5.2PL0 Copyright (c) Steve Scherf et al.
# Submitted via: CDex 1.51
#
DISCID=210edb12
DTITLE=Grammy Various Artist - ธ สถิตในดวงใจนิรันดร์ 3
DYEAR=1900
DGENRE=Jazz
TTITLE0=แสงเทียน
TTITLE1=สายฝน
TTITLE2=ใกล้รุ่ง
TTITLE3=เกาะในฝัน
TTITLE4=เทวาพาคู่ฝัน
TTITLE5=คำหวาน
TTITLE6=แผ่นดินของเรา
TTITLE7=Can't You Ever See
TTITLE8=ในดวงใจนิรันดร์
TTITLE9=แก้วตาขวัญใจ
TTITLE10=รักคืนเรือน
TTITLE11=เมื่อโสมส่อง
TTITLE12=ภิรมย์รัก
TTITLE13=ค่ำแล้ว
TTITLE14=เกิดเป็นไทยตายเพื่อไทย
TTITLE15=มหาจุฬาลงกรณ์
TTITLE16=ยูงทอง
TTITLE17=เกษตรศาสตร์
EXTD=
EXTT0=
EXTT1=
EXTT2=
EXTT3=
EXTT4=
EXTT5=
EXTT6=
EXTT7=
EXTT8=
EXTT9=
EXTT10=
EXTT11=
EXTT12=
EXTT13=
EXTT14=
EXTT15=
EXTT16=
EXTT17=
PLAYORDER=
